<?xml version="1.0" encoding="UTF-8"?>
<!DOCTYPE svg PUBLIC "-//W3C//DTD SVG 1.1//EN" "http://www.w3.org/Graphics/SVG/1.1/DTD/svg11.dtd">
<svg version="1.1" xmlns="http://www.w3.org/2000/svg" xmlns:xlink="http://www.w3.org/1999/xlink" x="0" y="0" width="306.685" height="249.782" viewBox="0, 0, 306.685, 249.782">
  <g id="Layer_1" transform="translate(-232.349, -204.774)">
    <path d="M370.357,366.706 C344.534,366.706 323.601,345.773 323.601,319.95 C323.601,294.127 344.534,273.194 370.357,273.194 C396.18,273.194 417.113,294.127 417.113,319.95 C417.113,345.773 396.18,366.706 370.357,366.706 z" fill="#FDE300"/>
    <path d="M277.693,216.613 L280.017,230.437 Q271.043,231.946 269.558,232.993 Q268.073,234.04 268.685,237.682 L269.161,240.514 L281.366,238.462 L283.748,252.623 L276.855,253.781 L289.158,326.946 L260.153,331.823 L247.85,258.659 L241.892,259.661 L239.51,245.5 L245.469,244.498 Q243.984,235.664 244.131,232.588 Q244.278,229.512 246.436,226.757 Q248.593,224.002 252.984,222.016 Q257.375,220.03 267.067,218.4 z" fill="#FDE300"/>
    <path d="M314.53,210.419 L316.923,224.647 L285.808,229.879 L283.416,215.651 z M317.841,230.109 L332.888,319.593 L301.773,324.825 L286.727,235.341 z" fill="#FDE300"/>
    <path d="M384.089,217.995 L380.19,263.078 L401.652,308.031 L374.402,312.613 Q367.378,295.434 363.132,282.904 Q363.063,299.453 362.268,314.653 L338.831,318.594 L342.955,269.339 L323.625,228.162 L347.062,224.221 Q357.331,250.944 358.377,254.623 Q358.514,230.844 359.196,222.18 z" fill="#FDE300"/>
    <path d="M299.462,341.068 L301.75,354.681 Q292.853,356.177 291.38,357.21 Q289.907,358.242 290.509,361.828 L290.978,364.617 L303.079,362.582 L305.424,376.526 L298.59,377.675 L310.705,449.72 L281.948,454.556 L269.834,382.511 L263.926,383.504 L261.581,369.56 L267.489,368.567 Q266.026,359.868 266.176,356.839 Q266.325,353.809 268.467,351.094 Q270.608,348.378 274.963,346.417 Q279.318,344.456 288.927,342.84 z" fill="#FDE300"/>
    <path d="M334.39,335.195 L352.466,442.698 L323.281,447.606 L305.204,340.103 z" fill="#FDE300"/>
    <path d="M413.325,373.677 L416.953,395.258 Q418.952,407.143 418.636,412.898 Q418.32,418.652 415.039,424.154 Q411.757,429.656 405.729,433.025 Q399.7,436.395 391.379,437.794 Q382.088,439.356 375.31,438.482 Q368.532,437.607 364.297,434.257 Q360.061,430.906 357.592,425.552 Q355.124,420.198 353.237,408.976 L349.44,386.4 Q347.375,374.115 348.987,366.743 Q350.6,359.371 357.108,353.975 Q363.615,348.58 374.848,346.691 Q384.278,345.105 391.491,346.658 Q398.704,348.21 403.105,351.908 Q407.505,355.606 409.628,359.961 Q411.75,364.315 413.325,373.677 z M384.195,371.748 Q383.056,364.975 381.998,363.343 Q380.939,361.712 378.443,362.132 Q375.947,362.551 375.41,364.451 Q374.874,366.351 376.013,373.123 L382.701,412.898 Q383.751,419.139 384.901,420.892 Q386.051,422.644 388.478,422.236 Q390.974,421.816 391.481,419.956 Q391.988,418.095 391.028,412.385 z" fill="#FDE300"/>
    <path d="M445.156,371.602 L418.876,376.021 L417.882,370.112 Q416.163,359.886 417.692,353.928 Q419.221,347.969 425.926,342.472 Q432.631,336.975 444.488,334.981 Q458.702,332.591 466.723,336.192 Q474.744,339.794 477.378,346.554 Q480.012,353.315 483.685,375.161 L491.121,419.384 L463.871,423.966 L462.554,416.13 Q460.781,421.276 457.121,424.316 Q453.461,427.355 447.844,428.299 Q440.494,429.535 433.694,426.616 Q426.893,423.697 424.648,410.351 L423.431,403.113 Q421.768,393.219 424.424,389.086 Q427.08,384.952 439.173,378.002 Q452.101,370.503 452.77,368.547 Q453.439,366.591 452.513,361.08 Q451.351,354.174 449.925,352.263 Q448.498,350.352 446.002,350.772 Q443.159,351.25 442.762,353.126 Q442.364,355.002 443.604,362.373 z M456.063,382.195 Q450.13,388.04 449.591,391.408 Q449.052,394.776 450.057,400.752 Q451.207,407.592 452.478,409.426 Q453.749,411.261 456.523,410.795 Q459.158,410.352 459.693,408.657 Q460.228,406.963 459.111,400.322 z" fill="#FDE300"/>
    <path d="M513.505,312.929 L515.839,326.807 L523.397,325.536 L525.742,339.48 L518.184,340.751 L526.111,387.896 Q527.574,396.594 528.677,397.433 Q529.781,398.272 536.645,397.117 L539.035,411.327 L527.732,413.228 Q518.164,414.837 513.944,414.761 Q509.725,414.685 506.141,412.454 Q502.558,410.223 501.197,406.799 Q499.837,403.375 497.627,390.227 L490.101,345.473 L484.069,346.488 L481.724,332.543 L487.757,331.529 L485.423,317.651 z" fill="#FDE300"/>
    <path d="M270.532,210.926 L272.856,224.749 Q263.882,226.258 262.397,227.306 Q260.912,228.353 261.524,231.994 L262,234.826 L274.205,232.774 L276.587,246.935 L269.694,248.094 L281.997,321.259 L252.992,326.136 L240.689,252.971 L234.731,253.973 L232.349,239.812 L238.308,238.81 Q236.823,229.976 236.97,226.901 Q237.117,223.825 239.275,221.07 Q241.432,218.315 245.823,216.328 Q250.214,214.342 259.906,212.712 z" fill="#000000"/>
    <path d="M364.983,360.795 C339.16,360.795 318.227,339.861 318.227,314.038 C318.227,288.216 339.16,267.282 364.983,267.282 C390.806,267.282 411.739,288.216 411.739,314.038 C411.739,339.861 390.806,360.795 364.983,360.795 z" fill="#EE1523"/>
    <path d="M307.117,204.774 L309.51,219.002 L278.395,224.234 L276.002,210.006 z M310.428,224.464 L325.475,313.948 L294.36,319.18 L279.313,229.696 z" fill="#000000"/>
    <path d="M379.046,211.878 L374.566,257.059 L396.733,301.893 L368.062,306.714 Q360.828,289.571 356.474,277.059 Q356.26,293.632 355.295,308.861 L330.636,313.007 L335.389,263.646 L315.43,222.575 L340.089,218.429 Q350.651,245.103 351.719,248.777 Q352.065,224.964 352.856,216.282 z" fill="#000000"/>
    <path d="M292.369,335.475 L294.658,349.087 Q285.761,350.583 284.288,351.616 Q282.814,352.649 283.417,356.234 L283.886,359.023 L295.987,356.989 L298.332,370.933 L291.498,372.082 L303.612,444.127 L274.856,448.962 L262.741,376.917 L256.833,377.911 L254.489,363.966 L260.397,362.973 Q258.934,354.274 259.083,351.245 Q259.233,348.216 261.374,345.5 Q263.516,342.784 267.871,340.823 Q272.225,338.862 281.835,337.246 z" fill="#000000"/>
    <path d="M327.384,329.587 L345.46,437.09 L316.274,441.998 L298.198,334.495 z" fill="#000000"/>
    <path d="M407.206,367.92 L410.835,389.5 Q412.833,401.386 412.502,407.143 Q412.17,412.9 408.836,418.411 Q405.502,423.922 399.392,427.305 Q393.282,430.688 384.855,432.105 Q375.445,433.687 368.585,432.826 Q361.724,431.966 357.444,428.623 Q353.163,425.28 350.674,419.929 Q348.186,414.578 346.299,403.356 L342.503,380.78 Q340.437,368.496 342.085,361.118 Q343.733,353.74 350.333,348.328 Q356.933,342.917 368.309,341.004 Q377.859,339.398 385.158,340.936 Q392.457,342.474 396.905,346.164 Q401.352,349.855 403.492,354.206 Q405.632,358.558 407.206,367.92 z M377.719,366.05 Q376.58,359.277 375.512,357.648 Q374.444,356.018 371.916,356.443 Q369.388,356.868 368.841,358.77 Q368.294,360.671 369.433,367.444 L376.121,407.218 Q377.17,413.46 378.331,415.21 Q379.492,416.961 381.95,416.548 Q384.478,416.123 384.995,414.26 Q385.513,412.398 384.552,406.688 z" fill="#000000"/>
    <path d="M438.218,365.983 L411.939,370.402 L410.945,364.492 Q409.226,354.266 410.755,348.308 Q412.284,342.349 418.989,336.852 Q425.693,331.355 437.55,329.361 Q451.765,326.971 459.786,330.573 Q467.806,334.174 470.44,340.935 Q473.074,347.695 476.748,369.541 L484.184,413.764 L456.934,418.346 L455.616,410.511 Q453.843,415.657 450.183,418.696 Q446.523,421.735 440.907,422.68 Q433.557,423.915 426.756,420.996 Q419.955,418.077 417.711,404.731 L416.494,397.493 Q414.83,387.599 417.486,383.466 Q420.142,379.332 432.236,372.383 Q445.163,364.883 445.833,362.927 Q446.502,360.971 445.575,355.46 Q444.414,348.554 442.987,346.643 Q441.561,344.732 439.065,345.152 Q436.222,345.63 435.824,347.506 Q435.427,349.383 436.666,356.753 z M449.126,376.575 Q443.192,382.421 442.654,385.789 Q442.115,389.157 443.12,395.133 Q444.27,401.972 445.541,403.807 Q446.812,405.641 449.585,405.175 Q452.22,404.732 452.755,403.037 Q453.29,401.343 452.174,394.703 z" fill="#000000"/>
    <path d="M506.568,307.31 L508.902,321.187 L516.459,319.917 L518.804,333.861 L511.246,335.132 L519.174,382.276 Q520.636,390.975 521.74,391.813 Q522.843,392.652 529.708,391.498 L532.097,405.707 L520.795,407.608 Q511.226,409.217 507.007,409.141 Q502.787,409.065 499.204,406.834 Q495.62,404.604 494.26,401.179 Q492.9,397.755 490.689,384.608 L483.164,339.854 L477.131,340.868 L474.787,326.924 L480.819,325.909 L478.486,312.032 z" fill="#000000"/>
  </g>
  <g id="Layer_4" transform="translate(-232.349, -204.774)">
    <path d="M362.724,311.261 L344.437,314.334 L343.918,311.249 Q343.021,305.909 344.247,302.727 Q345.474,299.544 350.264,296.457 Q355.054,293.371 363.305,291.984 Q373.196,290.322 378.637,291.992 Q384.078,293.662 385.706,297.149 Q387.333,300.637 389.25,312.043 L393.131,335.133 L374.168,338.32 L373.481,334.229 Q372.109,336.991 369.493,338.696 Q366.877,340.401 362.969,341.058 Q357.854,341.918 353.237,340.572 Q348.62,339.227 347.449,332.259 L346.814,328.48 Q345.946,323.314 347.899,321.06 Q349.852,318.807 358.408,314.803 Q367.555,310.485 368.073,309.435 Q368.592,308.385 368.108,305.508 Q367.502,301.902 366.571,300.936 Q365.639,299.969 363.902,300.261 Q361.924,300.594 361.596,301.593 Q361.268,302.593 361.914,306.442 z M369.961,316.533 Q365.694,319.781 365.226,321.571 Q364.758,323.361 365.282,326.481 Q365.882,330.052 366.708,330.983 Q367.535,331.913 369.465,331.589 Q371.298,331.281 371.716,330.373 Q372.134,329.465 371.552,325.998 z" fill="#000000" fill-opacity="0.478"/>
    <path d="M358.962,308.261 L340.675,311.334 L340.156,308.249 Q339.259,302.909 340.485,299.727 Q341.712,296.544 346.502,293.457 Q351.292,290.371 359.543,288.984 Q369.434,287.322 374.875,288.992 Q380.316,290.662 381.944,294.149 Q383.572,297.637 385.488,309.043 L389.369,332.133 L370.406,335.32 L369.719,331.229 Q368.347,333.991 365.731,335.696 Q363.115,337.401 359.207,338.058 Q354.092,338.918 349.475,337.572 Q344.858,336.227 343.687,329.259 L343.052,325.48 Q342.184,320.314 344.137,318.06 Q346.09,315.807 354.646,311.803 Q363.793,307.485 364.311,306.435 Q364.83,305.385 364.346,302.508 Q363.74,298.902 362.809,297.936 Q361.877,296.969 360.14,297.261 Q358.162,297.594 357.834,298.593 Q357.506,299.593 358.152,303.442 z M366.199,313.533 Q361.932,316.781 361.464,318.571 Q360.996,320.361 361.52,323.481 Q362.12,327.052 362.946,327.983 Q363.773,328.913 365.703,328.589 Q367.536,328.281 367.954,327.373 Q368.372,326.465 367.79,322.998 z" fill="#FDE300"/>
  </g>
</svg>
